{"title":"Ant-Man 2015 720p WEB-DL DD5.1 H264","uid":12751984,"size":3874318913,"categoryP":"video","categoryS":"hd___movies","magnet":"?xt=urn:btih:7e48b6c25cdcdb136297a2ef6369208aca414614&amp;dn=Ant-Man+2015+720p+WEB-DL+DD5.1+H264&amp;tr=udp%3A%2F%2Ftracker.leechers-paradise.org%3A6969&amp;tr=udp%3A%2F%2Fzer0day.ch%3A1337&amp;tr=udp%3A%2F%2Fopen.demonii.com%3A1337&amp;tr=udp%3A%2F%2Ftracker.coppersurfer.tk%3A6969&amp;tr=udp%3A%2F%2Fexodus.desync.com%3A6969","seeders":2,"leechers":47,"uploader":"TheRival","files":5,"time":1447389007,"description":"Screens: \nhttp://extraimago.com/image/e68 \nhttp://extraimago.com/image/e6a \nhttp://extraimago.com/image/e6w \nhttp://extraimago.com/image/e62 \nhttp://extraimago.com/image/e6N\r\n\r\nVideo\r\nID                                       : 1\r\nFormat                                   : AVC\r\nFormat/Info                              : Advanced Video Codec\r\nFormat profile                           :   \r\nFormat settings, CABAC                   : No\r\nFormat settings, ReFrames                : 2 frames\r\nCodec ID                                 : V_MPEG4/ISO/AVC\r\nDuration                                 : 1h 57mn\r\nBit rate                                 : 3 929 Kbps\r\nWidth                                    : 1 280 pixels\r\nHeight                                   : 688 pixels\r\nDisplay aspect ratio                     : 1.85:1\r\nFrame rate mode                          : Constant\r\nFrame rate                               : 23.976 fps\r\nColor space                              : YUV\r\nChroma subsampling                       : 4:2:0\r\nBit depth                                : 8 bits\r\nScan type                                : Progressive\r\nBits/(Pixel*Frame)                       : 0.186\r\nStream size                              : 3.22 GiB (89%)\r\nTitle                                    : Ant-Man.2015.720p.WEB-DL.DD5.1.H264-RARBG\r\nLanguage                                 : English\r\nDefault                                  : Yes\r\nForced                                   : No\r\nColor range                              : Limited\r\nColor primaries                          : BT.709\r\nTransfer characteristics                 : BT.709\r\nMatrix coefficients                      : BT.709\r\n\r\nAudio\r\nID                                       : 2\r\nFormat                                   : AC-3\r\nFormat/Info                              : Audio Coding 3\r\nMode extension                           : CM (complete main)\r\nFormat settings, Endianness              : Big\r\nCodec ID                                 : A_AC3\r\nDuration                                 : 1h 57mn\r\nBit rate mode                            : Constant\r\nBit rate                                 : 384 Kbps\r\nChannel(s)                               : 6 channels\r\nChannel positions                        : Front: L C R, Side: L R, LFE\r\nSampling rate                            : 48.0 KHz\r\nCompression mode                         : Lossy\r\nStream size                              : 322 MiB (9%)\r\nTitle                                    : Ant-Man.2015.720p.WEB-DL.DD5.1.H264-RARBG\r\nLanguage                                 : English\r\nDefault                                  : Yes\r\nForced                                   : No\r\n\r\nText\r\nID                                       : 3\r\nFormat                                   : UTF-8\r\nCodec ID                                 : S_TEXT/UTF8\r\nCodec ID/Info                            : UTF-8 Plain Text\r\nLanguage                                 : English\r\nDefault                                  : Yes\r\nForced                                   : No\r\n\r\nMenu\r\n00:00:00.000                             : en:1\r\n00:02:08.000                             : en:2\r\n00:08:40.000                             : en:3\r\n00:15:24.000                             : en:4\r\n00:19:59.000                             : en:5\r\n00:27:50.000                             : en:6\r\n00:33:07.000                             : en:7\r\n00:38:56.000                             : en:8\r\n00:44:36.000                             : en:9\r\n00:49:22.000                             : en:10\r\n00:57:44.000                             : en:11\r\n01:00:48.000                             : en:12\r\n01:06:31.000                             : en:13\r\n01:23:21.000                             : en:14\r\n01:34:20.000                             : en:15\r\n01:47:33.000                             : en:16","torrent":{"xt":"urn:btih:7e48b6c25cdcdb136297a2ef6369208aca414614","amp;dn":"Ant-Man+2015+720p+WEB-DL+DD5.1+H264","amp;tr":["udp%3A%2F%2Ftracker.leechers-paradise.org%3A6969","udp%3A%2F%2Fzer0day.ch%3A1337","udp%3A%2F%2Fopen.demonii.com%3A1337","udp%3A%2F%2Ftracker.coppersurfer.tk%3A6969","udp%3A%2F%2Fexodus.desync.com%3A6969"],"infoHash":"7e48b6c25cdcdb136297a2ef6369208aca414614","infoHashBuffer":{"type":"Buffer","data":[126,72,182,194,92,220,219,19,98,151,162,239,99,105,32,138,202,65,70,20]},"announce":[],"urlList":[]}}